<svg width="69" height="81" viewBox="0 0 69 81" fill="none" xmlns="http://www.w3.org/2000/svg">
<path d="M2.33962 35.5489L8.31674 41.2459L27.21 58.5967L35.31 50.8646C35.6569 50.3719 35.83 49.7778 35.8018 49.1758C35.7737 48.5739 35.5461 47.9985 35.1547 47.5403L27.7162 41.121L27.75 41.1041L19.7479 33.4564C19.2957 32.9536 19.0514 32.2977 19.0646 31.6216C19.0777 30.9455 19.3473 30.2996 19.8187 29.8147L41.385 9.30825L31.6177 0L2.35312 27.8032C1.82222 28.299 1.39891 28.8986 1.10949 29.5648C0.820077 30.2311 0.670731 30.9497 0.670731 31.6761C0.670731 32.4024 0.820077 33.1211 1.10949 33.7873C1.39891 34.4535 1.82222 35.0531 2.35312 35.5489H2.33962ZM66.6536 45.4613L60.6799 39.7541L41.7967 22.3999L33.6596 30.132C33.292 30.6164 33.1059 31.2143 33.1336 31.8217C33.1614 32.4291 33.4013 33.0076 33.8115 33.4564L41.2534 39.8385H41.2331L49.2285 47.4829C49.6777 47.9789 49.9182 48.6291 49.8999 49.298C49.8817 49.9669 49.6061 50.603 49.1306 51.0739L27.561 71.577L37.3856 81L66.6469 53.1968C67.1778 52.701 67.6011 52.1014 67.8905 51.4352C68.1799 50.7689 68.3293 50.0503 68.3293 49.3239C68.3293 48.5976 68.1799 47.8789 67.8905 47.2127C67.6011 46.5465 67.1778 45.9469 66.6469 45.4511L66.6536 45.4613Z" fill="#FB3833"/>
</svg>
