<svg width="31" height="31" viewBox="0 0 31 31" fill="none" xmlns="http://www.w3.org/2000/svg">
<path d="M3.32143 0C1.48772 0 0 1.46973 0 3.28125V27.3438C0 29.1553 1.48772 30.625 3.32143 30.625H27.6786C29.5123 30.625 31 29.1553 31 27.3438V3.28125C31 1.46973 29.5123 0 27.6786 0H3.32143ZM10.1636 9.10779C11.5223 9.10779 12.7295 9.57188 13.6185 10.2679C14.4405 10.9141 14.8255 11.5604 15.1614 12.1405L12.8141 13.2991C12.6461 12.9187 12.4441 12.5207 11.9252 12.0904C11.3544 11.6425 10.785 11.5104 10.2974 11.5104C8.38578 11.5104 7.37938 13.2668 7.37938 15.2214C7.37938 17.7899 8.70526 19.0646 10.2974 19.0646C11.8405 19.0646 12.4617 18.0044 12.8632 17.3259L15.1955 18.5021C14.7586 19.1807 14.3393 19.8444 13.3999 20.4893C12.8974 20.8372 11.7408 21.5172 10.0967 21.5172C6.96019 21.5172 4.42857 19.2644 4.42857 15.3036C4.42857 11.8422 6.80997 9.10779 10.1636 9.10779ZM15.3867 9.47194H18.5397L20.988 17.7898L23.4185 9.47201H26.5714L22.4626 21.1691H19.4449L15.3867 9.47194Z" fill="#E1E1E1"/>
</svg>
