<svg width="43" height="43" viewBox="0 0 43 43" fill="none" xmlns="http://www.w3.org/2000/svg">
<rect x="1.5" y="1.5" width="40" height="40" rx="4.5" stroke="#636DD7" stroke-width="3"/>
<g clip-path="url(#clip0_134_122)">
<path d="M30.8567 13.0535C29.1354 12.2773 27.2904 11.7035 25.3611 11.3773C25.3439 11.374 25.3261 11.3761 25.3102 11.3834C25.2942 11.3906 25.281 11.4027 25.2722 11.4178C25.0359 11.8329 24.7727 12.374 24.5882 12.8015C22.5419 12.4964 20.4616 12.4964 18.4153 12.8015C18.2106 12.3274 17.9788 11.8654 17.7212 11.4178C17.7121 11.4028 17.6989 11.3908 17.6831 11.3832C17.6673 11.3756 17.6497 11.3727 17.6323 11.375C15.7041 11.7013 13.8591 12.275 12.1367 13.0524C12.1227 13.0599 12.1104 13.0702 12.1007 13.0828C8.59968 18.2297 7.64005 23.2494 8.11143 28.2062C8.11274 28.2183 8.11651 28.2301 8.1225 28.2407C8.1285 28.2513 8.1366 28.2606 8.1463 28.268C10.1894 29.7563 12.4687 30.8897 14.8884 31.6205C14.9053 31.6254 14.9233 31.6253 14.9401 31.6201C14.9569 31.6149 14.9718 31.6049 14.9829 31.5913C15.5028 30.8945 15.9642 30.1558 16.3622 29.3829C16.3677 29.3723 16.3709 29.3607 16.3715 29.3488C16.3721 29.3369 16.3702 29.325 16.3658 29.3139C16.3614 29.3028 16.3547 29.2928 16.3461 29.2845C16.3376 29.2762 16.3273 29.2699 16.3161 29.2659C15.5889 28.9931 14.8847 28.6628 14.2101 28.2782C14.1979 28.2712 14.1877 28.2614 14.1803 28.2496C14.1729 28.2377 14.1686 28.2242 14.1677 28.2103C14.1668 28.1963 14.1694 28.1824 14.1752 28.1697C14.181 28.157 14.1899 28.146 14.2011 28.1375C14.3436 28.0325 14.4831 27.9249 14.6196 27.8147C14.632 27.8054 14.6466 27.7995 14.6619 27.7975C14.6773 27.7955 14.6929 27.7976 14.7073 27.8034C19.1252 29.7879 23.9098 29.7879 28.2759 27.8034C28.2903 27.7972 28.3061 27.7949 28.3217 27.7967C28.3373 27.7984 28.3522 27.8043 28.3648 27.8135C28.4998 27.9245 28.6393 28.0325 28.7833 28.1375C28.7946 28.1458 28.8036 28.1567 28.8096 28.1693C28.8156 28.1819 28.8184 28.1957 28.8177 28.2097C28.8171 28.2236 28.813 28.2372 28.8058 28.2491C28.7986 28.2611 28.7885 28.271 28.7766 28.2782C28.1053 28.6644 27.4029 28.9933 26.6694 29.2648C26.6581 29.2689 26.6479 29.2753 26.6393 29.2837C26.6307 29.2921 26.624 29.3022 26.6196 29.3134C26.6153 29.3246 26.6133 29.3366 26.614 29.3486C26.6146 29.3605 26.6178 29.3723 26.6233 29.3829C27.0283 30.1558 27.4918 30.8915 28.0014 31.5902C28.0123 31.6041 28.0271 31.6146 28.0439 31.6202C28.0607 31.6258 28.0788 31.6263 28.0959 31.6217C30.5193 30.8915 32.8021 29.7577 34.8482 28.268C34.858 28.2609 34.8662 28.2518 34.8724 28.2413C34.8786 28.2309 34.8826 28.2193 34.8842 28.2073C35.4467 22.4765 33.9414 17.4973 30.8916 13.085C30.8841 13.0707 30.8717 13.0595 30.8567 13.0535ZM17.0226 25.1878C15.6928 25.1878 14.5959 23.9852 14.5959 22.5103C14.5959 21.0343 15.6714 19.8328 17.0226 19.8328C18.3838 19.8328 19.4706 21.0444 19.4492 22.5103C19.4492 23.9863 18.3737 25.1878 17.0226 25.1878ZM25.9944 25.1878C24.6636 25.1878 23.5678 23.9852 23.5678 22.5103C23.5678 21.0343 24.6422 19.8328 25.9944 19.8328C27.3557 19.8328 28.4424 21.0444 28.4211 22.5103C28.4211 23.9863 27.3568 25.1878 25.9944 25.1878Z" fill="#8B95FF"/>
</g>
<defs>
<clipPath id="clip0_134_122">
<rect width="27" height="27" fill="white" transform="translate(8 8)"/>
</clipPath>
</defs>
</svg>
