<svg width="44" height="43" viewBox="0 0 44 43" fill="none" xmlns="http://www.w3.org/2000/svg">
<rect x="1.5" y="1.5" width="41" height="40" rx="4.5" fill="#1F1F1F"/>
<rect x="1.5" y="1.5" width="41" height="40" rx="4.5" stroke="#C40A39" stroke-width="3"/>
<path d="M32.8125 10.1562H10.8125C9.3 10.1562 8.07625 11.3937 8.07625 12.9062L8.0625 29.4062C8.0625 30.9188 9.3 32.1562 10.8125 32.1562H32.8125C34.325 32.1562 35.5625 30.9188 35.5625 29.4062V12.9062C35.5625 11.3937 34.325 10.1562 32.8125 10.1562ZM32.2625 16L22.5412 22.0775C22.1012 22.3525 21.5238 22.3525 21.0838 22.0775L11.3625 16C11.2246 15.9226 11.1039 15.818 11.0076 15.6926C10.9113 15.5672 10.8415 15.4236 10.8023 15.2704C10.7631 15.1172 10.7554 14.9577 10.7797 14.8014C10.804 14.6452 10.8597 14.4955 10.9435 14.3614C11.0273 14.2273 11.1374 14.1117 11.2672 14.0214C11.3971 13.9311 11.5438 13.8681 11.6987 13.8362C11.8535 13.8042 12.0133 13.8041 12.1682 13.8357C12.3231 13.8673 12.47 13.93 12.6 14.02L21.8125 19.7812L31.025 14.02C31.155 13.93 31.3019 13.8673 31.4568 13.8357C31.6117 13.8041 31.7715 13.8042 31.9263 13.8362C32.0812 13.8681 32.2279 13.9311 32.3577 14.0214C32.4876 14.1117 32.5977 14.2273 32.6815 14.3614C32.7653 14.4955 32.821 14.6452 32.8453 14.8014C32.8696 14.9577 32.8619 15.1172 32.8227 15.2704C32.7835 15.4236 32.7137 15.5672 32.6174 15.6926C32.5211 15.818 32.4004 15.9226 32.2625 16Z" fill="#F21B51"/>
</svg>
