<svg width="44" height="43" viewBox="0 0 44 43" fill="none" xmlns="http://www.w3.org/2000/svg">
<rect x="1.5" y="1.5" width="41" height="40" rx="4.5" fill="#1F1F1F"/>
<rect x="1.5" y="1.5" width="41" height="40" rx="4.5" stroke="#BA002F" stroke-width="3"/>
<path d="M10 12.6667V11C9.08004 11 8.33337 11.7467 8.33337 12.6667H10ZM34 12.6667H35.6667C35.6667 11.7467 34.92 11 34 11V12.6667ZM10 14.3333H34V11H10V14.3333ZM32.3334 12.6667V28.6667H35.6667V12.6667H32.3334ZM31.3334 29.6667H12.6667V33H31.3334V29.6667ZM11.6667 28.6667V12.6667H8.33337V28.6667H11.6667ZM12.6667 29.6667C12.4015 29.6667 12.1471 29.5613 11.9596 29.3738C11.7721 29.1862 11.6667 28.9319 11.6667 28.6667H8.33337C8.33337 29.8159 8.78992 30.9181 9.60258 31.7308C10.4152 32.5435 11.5174 33 12.6667 33V29.6667ZM32.3334 28.6667C32.3334 28.9319 32.228 29.1862 32.0405 29.3738C31.8529 29.5613 31.5986 29.6667 31.3334 29.6667V33C32.4826 33 33.5848 32.5435 34.3975 31.7308C35.2102 30.9181 35.6667 29.8159 35.6667 28.6667H32.3334Z" fill="#FF0846"/>
<path d="M10 12.6667L22 24.6667L34 12.6667" stroke="#FF0846" stroke-width="2.5" stroke-linecap="round" stroke-linejoin="round"/>
</svg>
