<svg width="55" height="55" viewBox="0 0 55 55" fill="none" xmlns="http://www.w3.org/2000/svg">
<g filter="url(#filter0_d_21_606)">
<g clip-path="url(#clip0_21_606)">
<rect x="6" y="4" width="39" height="39" rx="6" fill="#DB2521"/>
<path d="M25.5 7.25C23.366 7.25 21.2529 7.67032 19.2814 8.48696C17.3099 9.3036 15.5185 10.5006 14.0095 12.0095C10.962 15.057 9.25 19.1902 9.25 23.5C9.25 30.6825 13.9138 36.7762 20.365 38.9375C21.1775 39.0675 21.4375 38.5637 21.4375 38.125V35.3787C16.9363 36.3537 15.9775 33.2012 15.9775 33.2012C15.23 31.3162 14.1738 30.8125 14.1738 30.8125C12.695 29.805 14.2875 29.8375 14.2875 29.8375C15.9125 29.9512 16.7738 31.5112 16.7738 31.5112C18.1875 33.9812 20.5763 33.25 21.5025 32.86C21.6488 31.8037 22.0712 31.0887 22.5262 30.6825C18.9187 30.2762 15.1325 28.8787 15.1325 22.6875C15.1325 20.8837 15.75 19.4375 16.8063 18.2837C16.6438 17.8775 16.075 16.1875 16.9688 13.9937C16.9688 13.9937 18.3337 13.555 21.4375 15.6512C22.7212 15.2937 24.1187 15.115 25.5 15.115C26.8813 15.115 28.2787 15.2937 29.5625 15.6512C32.6663 13.555 34.0312 13.9937 34.0312 13.9937C34.925 16.1875 34.3563 17.8775 34.1938 18.2837C35.25 19.4375 35.8675 20.8837 35.8675 22.6875C35.8675 28.895 32.065 30.26 28.4412 30.6662C29.0263 31.17 29.5625 32.1612 29.5625 33.6725V38.125C29.5625 38.5637 29.8225 39.0837 30.6513 38.9375C37.1025 36.76 41.75 30.6825 41.75 23.5C41.75 21.366 41.3297 19.2529 40.513 17.2814C39.6964 15.3099 38.4994 13.5185 36.9905 12.0095C35.4815 10.5006 33.6901 9.3036 31.7186 8.48696C29.7471 7.67032 27.634 7.25 25.5 7.25Z" fill="white"/>
</g>
<rect x="6.5" y="4.5" width="38" height="38" rx="5.5" stroke="#F54C47"/>
</g>
<defs>
<filter id="filter0_d_21_606" x="0" y="0" width="55" height="55" filterUnits="userSpaceOnUse" color-interpolation-filters="sRGB">
<feFlood flood-opacity="0" result="BackgroundImageFix"/>
<feColorMatrix in="SourceAlpha" type="matrix" values="0 0 0 0 0 0 0 0 0 0 0 0 0 0 0 0 0 0 127 0" result="hardAlpha"/>
<feOffset dx="2" dy="4"/>
<feGaussianBlur stdDeviation="4"/>
<feComposite in2="hardAlpha" operator="out"/>
<feColorMatrix type="matrix" values="0 0 0 0 0 0 0 0 0 0 0 0 0 0 0 0 0 0 0.25 0"/>
<feBlend mode="normal" in2="BackgroundImageFix" result="effect1_dropShadow_21_606"/>
<feBlend mode="normal" in="SourceGraphic" in2="effect1_dropShadow_21_606" result="shape"/>
</filter>
<clipPath id="clip0_21_606">
<rect x="6" y="4" width="39" height="39" rx="6" fill="white"/>
</clipPath>
</defs>
</svg>
