<svg width="32" height="33" viewBox="0 0 32 33" fill="none" xmlns="http://www.w3.org/2000/svg">
<path d="M28.25 0.375C29.1783 0.375 30.0685 0.752529 30.7249 1.42453C31.3813 2.09654 31.75 3.00797 31.75 3.95833V29.0417C31.75 29.992 31.3813 30.9035 30.7249 31.5755C30.0685 32.2475 29.1783 32.625 28.25 32.625H3.75C2.82174 32.625 1.9315 32.2475 1.27513 31.5755C0.618749 30.9035 0.25 29.992 0.25 29.0417V3.95833C0.25 3.00797 0.618749 2.09654 1.27513 1.42453C1.9315 0.752529 2.82174 0.375 3.75 0.375H28.25ZM27.375 28.1458V18.65C27.375 17.1009 26.7739 15.6153 25.704 14.5199C24.6341 13.4245 23.1831 12.8092 21.67 12.8092C20.1825 12.8092 18.45 13.7408 17.61 15.1383V13.1496H12.7275V28.1458H17.61V19.3129C17.61 17.9333 18.695 16.8046 20.0425 16.8046C20.6923 16.8046 21.3154 17.0689 21.7749 17.5393C22.2344 18.0097 22.4925 18.6477 22.4925 19.3129V28.1458H27.375ZM7.04 10.3367C7.81974 10.3367 8.56754 10.0195 9.11889 9.45506C9.67025 8.89057 9.98 8.12497 9.98 7.32667C9.98 5.66042 8.6675 4.29875 7.04 4.29875C6.25562 4.29875 5.50337 4.61776 4.94873 5.18561C4.39409 5.75345 4.0825 6.52361 4.0825 7.32667C4.0825 8.99292 5.4125 10.3367 7.04 10.3367ZM9.4725 28.1458V13.1496H4.625V28.1458H9.4725Z" fill="#E1E1E1"/>
</svg>
