<svg width="44" height="43" viewBox="0 0 44 43" fill="none" xmlns="http://www.w3.org/2000/svg">
<rect x="1.5" y="1.5" width="41" height="40" rx="4.5" fill="#1F1F1F"/>
<rect x="1.5" y="1.5" width="41" height="40" rx="4.5" stroke="#0077B2" stroke-width="3"/>
<path d="M22 20.25C22.9665 20.25 23.75 19.4665 23.75 18.5C23.75 17.5335 22.9665 16.75 22 16.75C21.0335 16.75 20.25 17.5335 20.25 18.5C20.25 19.4665 21.0335 20.25 22 20.25Z" fill="#00AAFF"/>
<path d="M22 9.75C17.1755 9.75 13.25 13.5043 13.25 18.1172C13.25 20.314 14.2513 23.2354 16.2261 26.8005C17.812 29.6628 19.6468 32.2512 20.6011 33.5391C20.7623 33.7591 20.9732 33.9381 21.2165 34.0614C21.4599 34.1848 21.7288 34.2491 22.0016 34.2491C22.2745 34.2491 22.5434 34.1848 22.7868 34.0614C23.0301 33.9381 23.2409 33.7591 23.4022 33.5391C24.3548 32.2512 26.1913 29.6628 27.7772 26.8005C29.7487 23.2365 30.75 20.3151 30.75 18.1172C30.75 13.5043 26.8245 9.75 22 9.75ZM22 22C21.3078 22 20.6311 21.7947 20.0555 21.4101C19.4799 21.0256 19.0313 20.4789 18.7664 19.8394C18.5015 19.1999 18.4322 18.4961 18.5673 17.8172C18.7023 17.1383 19.0356 16.5146 19.5251 16.0251C20.0146 15.5356 20.6383 15.2023 21.3172 15.0673C21.9961 14.9322 22.6999 15.0015 23.3394 15.2664C23.9789 15.5313 24.5256 15.9799 24.9101 16.5555C25.2947 17.1311 25.5 17.8078 25.5 18.5C25.499 19.4279 25.1299 20.3176 24.4738 20.9738C23.8176 21.6299 22.9279 21.999 22 22Z" fill="#00AAFF"/>
</svg>
