<svg width="44" height="43" viewBox="0 0 44 43" fill="none" xmlns="http://www.w3.org/2000/svg">
<rect x="1.5" y="1.5" width="41" height="40" rx="4.5" fill="#1F1F1F"/>
<rect x="1.5" y="1.5" width="41" height="40" rx="4.5" stroke="#06B549" stroke-width="3"/>
<path d="M14.3783 20.2858C16.4183 24.295 19.705 27.5675 23.7142 29.6217L26.8308 26.505C27.2133 26.1225 27.78 25.995 28.2758 26.165C29.8625 26.6892 31.5767 26.9725 33.3333 26.9725C34.1125 26.9725 34.75 27.61 34.75 28.3892V33.3333C34.75 34.1125 34.1125 34.75 33.3333 34.75C20.0308 34.75 9.25 23.9692 9.25 10.6667C9.25 9.8875 9.8875 9.25 10.6667 9.25H15.625C16.4042 9.25 17.0417 9.8875 17.0417 10.6667C17.0417 12.4375 17.325 14.1375 17.8492 15.7242C18.005 16.22 17.8917 16.7725 17.495 17.1692L14.3783 20.2858Z" fill="#00FF62"/>
</svg>
