<svg width="55" height="55" viewBox="0 0 55 55" fill="none" xmlns="http://www.w3.org/2000/svg">
<g filter="url(#filter0_d_21_616)">
<g clip-path="url(#clip0_21_616)">
<rect x="6" y="4" width="39" height="39" rx="6" fill="#006FBF"/>
<path d="M23.2163 21.215C24.388 20.0434 25.9653 19.3669 27.6217 19.3256C29.2782 19.2842 30.8872 19.8811 32.1159 20.9928L32.3497 21.215L36.0025 24.8691C37.1922 26.0609 37.8694 27.6702 37.8896 29.354C37.9099 31.0379 37.2717 32.663 36.1111 33.8831C34.9505 35.1032 33.3592 35.8217 31.6765 35.8855C29.9937 35.9493 28.3526 35.3534 27.103 34.2247L26.8705 34.0025L24.1295 31.2616C23.8979 31.0291 23.7634 30.7172 23.7534 30.3892C23.7434 30.0612 23.8586 29.7417 24.0756 29.4955C24.2927 29.2494 24.5953 29.0951 24.9219 29.0639C25.2486 29.0328 25.5749 29.1272 25.8345 29.328L25.956 29.4352L28.6969 32.1761C29.4074 32.8907 30.3684 33.3005 31.3759 33.3184C32.3835 33.3363 33.3585 32.961 34.094 32.2721C34.8294 31.5832 35.2676 30.6348 35.3155 29.6282C35.3634 28.6216 35.0172 27.6359 34.3505 26.8803L34.1761 26.6955L30.5233 23.0427C30.1635 22.6828 29.7362 22.3973 29.2661 22.2025C28.7959 22.0078 28.2919 21.9075 27.783 21.9075C27.2741 21.9075 26.7702 22.0078 26.3 22.2025C25.8298 22.3973 25.4026 22.6828 25.0428 23.0427C24.8004 23.2849 24.4717 23.4209 24.1291 23.4208C23.7864 23.4207 23.4579 23.2844 23.2157 23.0421C22.9735 22.7997 22.8375 22.471 22.8376 22.1284C22.8377 21.7858 22.974 21.4572 23.2163 21.215ZM14.9962 12.9948C16.1679 11.8232 17.7451 11.1468 19.4016 11.1054C21.058 11.0641 22.667 11.661 23.8958 12.7727L24.1295 12.9948L26.8692 15.737C27.1008 15.9695 27.2353 16.2814 27.2453 16.6094C27.2554 16.9374 27.1401 17.257 26.9231 17.5031C26.7061 17.7493 26.4035 17.9036 26.0768 17.9347C25.7501 17.9658 25.4238 17.8714 25.1642 17.6707L25.0428 17.5635L22.3031 14.8238C21.5914 14.1167 20.6331 13.7132 19.6299 13.6982C18.6268 13.6833 17.6569 14.0579 16.9243 14.7435C16.1918 15.429 15.7537 16.372 15.7022 17.3739C15.6507 18.3759 15.9898 19.3588 16.6482 20.1158L16.8226 20.3018L20.4767 23.9559C21.2034 24.6824 22.1888 25.0905 23.2163 25.0905C24.2438 25.0905 25.2293 24.6824 25.956 23.9559C26.0759 23.8359 26.2183 23.7407 26.375 23.6757C26.5317 23.6107 26.6997 23.5773 26.8694 23.5772C27.039 23.5771 27.207 23.6105 27.3638 23.6754C27.5206 23.7402 27.663 23.8354 27.783 23.9553C27.903 24.0752 27.9982 24.2176 28.0632 24.3743C28.1282 24.531 28.1617 24.699 28.1617 24.8687C28.1618 25.0383 28.1284 25.2063 28.0636 25.3631C27.9987 25.5199 27.9036 25.6623 27.7837 25.7823C26.612 26.954 25.0347 27.6304 23.3783 27.6718C21.7218 27.7131 20.1128 27.1162 18.8841 26.0045L18.649 25.7823L14.9962 22.1282C13.7854 20.9171 13.1053 19.2747 13.1053 17.5622C13.1053 15.8497 13.7854 14.206 14.9962 12.9948Z" fill="#E1E1E1"/>
</g>
<rect x="6.5" y="4.5" width="38" height="38" rx="5.5" stroke="#1483D3"/>
</g>
<defs>
<filter id="filter0_d_21_616" x="0" y="0" width="55" height="55" filterUnits="userSpaceOnUse" color-interpolation-filters="sRGB">
<feFlood flood-opacity="0" result="BackgroundImageFix"/>
<feColorMatrix in="SourceAlpha" type="matrix" values="0 0 0 0 0 0 0 0 0 0 0 0 0 0 0 0 0 0 127 0" result="hardAlpha"/>
<feOffset dx="2" dy="4"/>
<feGaussianBlur stdDeviation="4"/>
<feComposite in2="hardAlpha" operator="out"/>
<feColorMatrix type="matrix" values="0 0 0 0 0 0 0 0 0 0 0 0 0 0 0 0 0 0 0.25 0"/>
<feBlend mode="normal" in2="BackgroundImageFix" result="effect1_dropShadow_21_616"/>
<feBlend mode="normal" in="SourceGraphic" in2="effect1_dropShadow_21_616" result="shape"/>
</filter>
<clipPath id="clip0_21_616">
<rect x="6" y="4" width="39" height="39" rx="6" fill="white"/>
</clipPath>
</defs>
</svg>
